HIERARCHY
ROOT Hips
{
	OFFSET 0.000000 0.000000 0.000000
	CHANNELS 6 Xposition Yposition Zposition Zrotation Yrotation Xrotation 
	JOINT LHipJoint
	{
		OFFSET 0.000000 0.000000 0.000000
		CHANNELS 3 Zrotation Yrotation Xrotation
		JOINT LeftUpLeg
		{
			OFFSET 1.363060 -1.794630 0.839290
			CHANNELS 3 Zrotation Yrotation Xrotation
			JOINT LeftLeg
			{
				OFFSET 2.448110 -6.726130 0.000000
				CHANNELS 3 Zrotation Yrotation Xrotation
				JOINT LeftFoot
				{
					OFFSET 2.562200 -7.039590 0.000000
					CHANNELS 3 Zrotation Yrotation Xrotation
					JOINT LeftToeBase
					{
						OFFSET 0.157640 -0.433110 2.322550
						CHANNELS 3 Zrotation Yrotation Xrotation
						End Site
						{
							OFFSET 0.000000 0.000000 0.000000
						}
					}
				}
			}
		}
	}
	JOINT RHipJoint
	{
		OFFSET 0.000000 0.000000 0.000000
		CHANNELS 3 Zrotation Yrotation Xrotation
		JOINT RightUpLeg
		{
			OFFSET -1.305520 -1.794630 0.839290
			CHANNELS 3 Zrotation Yrotation Xrotation
			JOINT RightLeg
			{
				OFFSET -2.542530 -6.985550 0.000000
				CHANNELS 3 Zrotation Yrotation Xrotation
				JOINT RightFoot
				{
					OFFSET -2.568260 -7.056230 0.000000
					CHANNELS 3 Zrotation Yrotation Xrotation
					JOINT RightToeBase
					{
						OFFSET -0.164730 -0.452590 2.363150
						CHANNELS 3 Zrotation Yrotation Xrotation
						End Site
						{
							OFFSET 0.000000 0.000000 0.000000
						}
					}
				}
			}
		}
	}
	JOINT LowerBack
	{
		OFFSET 0.000000 0.000000 0.000000
		CHANNELS 3 Zrotation Yrotation Xrotation
		JOINT Spine
		{
			OFFSET 0.028270 2.035590 -0.193380
			CHANNELS 3 Zrotation Yrotation Xrotation
			JOINT Spine1
			{
				OFFSET 0.056720 2.048850 -0.042750
				CHANNELS 3 Zrotation Yrotation Xrotation
				JOINT Neck
				{
					OFFSET 0.000000 0.000000 0.000000
					CHANNELS 3 Zrotation Yrotation Xrotation
					JOINT Neck1
					{
						OFFSET -0.054170 1.746240 0.172020
						CHANNELS 3 Zrotation Yrotation Xrotation
						JOINT Head
						{
							OFFSET 0.104070 1.761360 -0.123970
							CHANNELS 3 Zrotation Yrotation Xrotation
							End Site
							{
								OFFSET 0.000000 0.000000 0.000000
							}
						}
					}
				}
				JOINT LeftShoulder
				{
					OFFSET 0.000000 0.000000 0.000000
					CHANNELS 3 Zrotation Yrotation Xrotation
					JOINT LeftArm
					{
						OFFSET 3.362410 1.200890 -0.311210
						CHANNELS 3 Zrotation Yrotation Xrotation
						JOINT LeftForeArm
						{
							OFFSET 4.983000 -0.000000 -0.000000
							CHANNELS 3 Zrotation Yrotation Xrotation
							JOINT LeftHand
							{
								OFFSET 3.483560 -0.000000 -0.000000
								CHANNELS 3 Zrotation Yrotation Xrotation
								JOINT LeftFingerBase
								{
									OFFSET 0.000000 0.000000 0.000000
									CHANNELS 3 Zrotation Yrotation Xrotation
									JOINT LeftHandIndex1
									{
										OFFSET 0.715260 -0.000000 -0.000000
										CHANNELS 3 Zrotation Yrotation Xrotation
										End Site
										{
											OFFSET 0.000000 0.000000 0.000000
										}
									}
								}
								JOINT LThumb
								{
									OFFSET 0.000000 0.000000 0.000000
									CHANNELS 3 Zrotation Yrotation Xrotation
									End Site
									{
										OFFSET 0.000000 0.000000 0.000000
									}
								}
							}
						}
					}
				}
				JOINT RightShoulder
				{
					OFFSET 0.000000 0.000000 0.000000
					CHANNELS 3 Zrotation Yrotation Xrotation
					JOINT RightArm
					{
						OFFSET -3.136600 1.374050 -0.404650
						CHANNELS 3 Zrotation Yrotation Xrotation
						JOINT RightForeArm
						{
							OFFSET -5.241900 -0.000000 -0.000000
							CHANNELS 3 Zrotation Yrotation Xrotation
							JOINT RightHand
							{
								OFFSET -3.444170 -0.000000 -0.000000
								CHANNELS 3 Zrotation Yrotation Xrotation
								JOINT RightFingerBase
								{
									OFFSET 0.000000 0.000000 0.000000
									CHANNELS 3 Zrotation Yrotation Xrotation
									JOINT RightHandIndex1
									{
										OFFSET -0.622530 -0.000000 -0.000000
										CHANNELS 3 Zrotation Yrotation Xrotation
										End Site
										{
											OFFSET 0.000000 0.000000 0.000000
										}
									}
								}
								JOINT RThumb
								{
									OFFSET 0.000000 0.000000 0.000000
									CHANNELS 3 Zrotation Yrotation Xrotation
									End Site
									{
										OFFSET 0.000000 0.000000 0.000000
									}
								}
							}
						}
					}
				}
			}
		}
	}
}
MOTION
Frames: 8
Frame Time: 0.008333
15.796073 18.825906 19.848541 -179.026709 -2.999950 -149.227377 35.553195 10.527067 2.830974 -59.518244 -29.371150 -17.418243 6.203770 4.738571 14.719500 -3.865237 -21.210163 -42.192662 0.803300 -5.720200 -15.974800 -38.603674 -10.476316 3.422773 66.187746 29.899330 -14.683670 -6.009593 -4.255882 12.394111 -2.118614 12.221465 -48.336098 -1.341200 7.332600 -20.704500 -5.399868 -3.103129 -33.941061 12.158853 -1.112160 -2.785456 -4.483725 -1.855148 20.979676 -13.682707 -2.828828 -2.058086 18.060709 -7.723372 22.901717 1.580700 -1.885800 4.765400 17.245887 -4.803081 1.112389 -111.231404 -5.527308 18.236963 20.507573 -19.242365 -2.456569 0.733585 -0.142185 2.968693 22.110091 -12.349428 -4.766000 -7.125000 0.000000 0.000000 -4.069900 16.820600 2.725000 -11.972550 2.853787 1.530980 105.755306 -1.717611 2.508376 -26.236011 34.450307 -5.472807 -0.197718 -4.330158 -3.816549 -12.720911 -55.588329 9.645200 7.125000 0.000000 0.000000 60.371700 -75.242600 -46.414900 
15.796264 18.825715 19.847106 -179.018252 -2.983398 -149.207046 35.542802 10.535515 2.837499 -59.497784 -29.350345 -17.452132 6.207091 4.742575 14.730988 -3.891559 -21.242082 -42.168966 0.802200 -5.716500 -15.964200 -38.586471 -10.478614 3.433386 66.176666 29.907299 -14.708655 -6.011094 -4.301015 12.427805 -2.049781 12.035138 -47.812860 -1.426700 7.553000 -21.364300 -5.398159 -3.122670 -34.009458 12.173426 -1.139710 -2.684137 -4.523799 -1.865011 20.923351 -13.795773 -2.937930 -2.273393 18.251793 -7.912817 23.372729 1.598200 -1.920500 4.832300 17.263141 -4.779232 1.121081 -111.237621 -5.539397 18.161473 20.505188 -19.246867 -2.454164 0.731274 -0.133490 2.882667 21.915190 -12.147153 -4.645600 -7.125000 0.000000 0.000000 -4.196600 17.046600 2.789500 -11.947657 2.871197 1.548032 105.726823 -1.770571 2.648861 -26.294653 34.511574 -5.499816 -0.188552 -4.320576 -3.936924 -12.686416 -55.391167 9.593400 7.125000 0.000000 0.000000 59.731200 -75.153100 -45.760700 
15.796169 18.824376 19.845384 -178.975804 -2.965628 -149.161460 35.568226 10.541613 2.864613 -59.450724 -29.412156 -17.501839 6.186788 4.698614 14.701790 -3.873944 -21.466192 -42.603893 1.516600 -7.776700 -22.037900 -38.595367 -10.468583 3.453982 66.206534 29.944297 -14.755040 -5.996256 -4.233707 12.362242 -2.095775 12.400100 -48.515360 -1.192100 6.928200 -19.502800 -5.419566 -3.180064 -34.110653 12.320412 -1.167974 -2.606046 -4.586823 -1.874663 20.923098 -13.854556 -2.997863 -2.350457 18.355379 -8.023518 23.565773 1.605500 -1.949100 4.860500 17.268287 -4.774621 1.119883 -111.253936 -5.578718 17.972242 20.505886 -19.268190 -2.451888 0.730346 -0.139582 3.050225 21.935569 -12.261329 -4.692100 -7.125000 0.000000 0.000000 -4.185900 16.927400 2.793300 -11.964609 2.864447 1.548004 105.706862 -1.742250 2.731347 -26.296983 34.516533 -5.500576 -0.194678 -4.323082 -3.962322 -12.829405 -55.424387 9.704600 7.125000 0.000000 0.000000 59.762900 -75.218300 -45.856400 
15.795499 18.823515 19.843758 -178.939612 -2.961249 -149.202561 35.578505 10.577840 2.873247 -59.472166 -29.327982 -17.465754 6.211272 4.742529 14.741256 -3.926532 -21.299816 -42.154579 0.753700 -5.544800 -15.469200 -38.545813 -10.476668 3.433420 66.212086 29.858856 -14.749641 -6.000021 -4.257876 12.441763 -2.066174 12.406940 -48.423101 -1.378600 7.429900 -20.995500 -5.535864 -3.287983 -34.109455 12.642328 -1.181875 -2.521645 -4.641570 -1.877247 20.912930 -13.860624 -2.907281 -2.290641 18.355300 -7.886117 23.261982 1.618900 -1.908000 4.826600 17.241793 -4.781933 1.101495 -111.292476 -5.606191 17.874338 20.503296 -19.296551 -2.452576 0.729426 -0.147491 3.205978 22.040658 -12.375839 -4.758800 -7.125000 0.000000 0.000000 -4.116700 16.801800 2.758200 -12.030164 2.820370 1.531537 105.664001 -1.741868 2.804170 -26.279963 34.496068 -5.491190 -0.198376 -4.328262 -3.996419 -12.938141 -55.413932 9.783700 7.125000 0.000000 0.000000 59.650100 -75.251700 -45.792600 
15.794447 18.823898 19.841080 -178.960023 -2.960896 -149.333422 35.562419 10.568925 2.896731 -59.525411 -29.222654 -17.362421 6.221214 4.747521 14.750714 -3.982867 -21.308859 -41.955107 0.570200 -4.835900 -13.441000 -38.530824 -10.471554 3.470695 66.189971 29.810181 -14.700610 -6.007173 -4.301363 12.551223 -2.053764 12.309195 -48.254242 -1.529600 7.808600 -22.134200 -5.551915 -3.294795 -34.276561 12.584463 -1.251775 -1.951876 -4.553044 -1.878120 20.804251 -13.547951 -2.732345 -2.401867 17.963713 -7.469162 22.598335 1.577700 -1.782300 4.774200 17.217295 -4.729088 1.037754 -111.302926 -5.694387 17.844412 20.504557 -19.330257 -2.453074 0.726002 -0.148685 3.284951 22.022043 -12.297614 -4.725000 -7.125000 0.000000 0.000000 -4.124500 16.887700 2.755700 -12.074169 2.763437 1.462592 105.653415 -1.667790 2.832716 -26.241855 34.486704 -5.477260 -0.193630 -4.336475 -4.008158 -12.860479 -55.526804 9.738600 7.125000 0.000000 0.000000 60.064800 -75.265800 -46.170000 
15.793012 18.823611 19.836680 -178.976722 -2.925379 -149.425900 35.556904 10.541808 2.900078 -59.585219 -29.144479 -17.234528 6.223693 4.725304 14.687508 -3.940374 -21.255057 -41.976056 0.610900 -5.002700 -13.916100 -38.548765 -10.450875 3.502098 66.191725 29.805725 -14.630262 -6.008472 -4.300578 12.570103 -2.058079 12.321017 -48.275092 -1.521300 7.788300 -22.072900 -5.508335 -3.263391 -34.411458 12.440721 -1.304516 -1.540384 -4.490466 -1.880607 20.691309 -13.281979 -2.694478 -2.651312 17.643269 -7.274792 22.411426 1.527900 -1.718500 4.779600 17.199376 -4.669439 1.007926 -111.332313 -5.677929 17.759471 20.537747 -19.401254 -2.465182 0.722870 -0.148931 3.318231 22.008886 -12.238441 -4.700000 -7.125000 0.000000 0.000000 -4.129400 16.952200 2.753200 -12.081279 2.743247 1.418733 105.676346 -1.574493 2.681919 -26.165714 34.438237 -5.446523 -0.196805 -4.346739 -3.839326 -12.699724 -55.770198 9.648500 7.125000 0.000000 0.000000 60.978900 -75.299800 -47.008600 
15.792342 18.823324 19.833236 -178.912838 -2.849720 -149.401413 35.588487 10.556305 2.853838 -59.593860 -29.079199 -17.164624 6.234316 4.718759 14.609486 -3.765687 -20.958112 -42.067084 0.604700 -4.977600 -13.844800 -38.541552 -10.416935 3.487692 66.221555 29.894027 -14.625993 -5.995101 -4.303213 12.582506 -2.069701 12.308700 -48.283238 -1.524400 7.796000 -22.096100 -5.535321 -3.285977 -34.277233 12.650960 -1.236356 -1.833201 -4.560050 -1.865903 20.711095 -13.272702 -2.794393 -2.674446 17.561014 -7.410734 22.607380 1.501000 -1.777500 4.796600 17.160998 -4.684997 1.040242 -111.395061 -5.547025 17.674895 20.580877 -19.472480 -2.483399 0.721761 -0.146839 3.307627 22.027836 -12.171313 -4.680100 -7.125000 0.000000 0.000000 -4.113100 17.019900 2.736100 -12.107371 2.751916 1.443713 105.678840 -1.573154 2.527305 -26.113950 34.377147 -5.421603 -0.202422 -4.352024 -3.697482 -12.619482 -55.844894 9.597500 7.125000 0.000000 0.000000 61.265200 -75.297400 -47.258600 
15.791960 18.823802 19.831706 -178.860938 -2.809884 -149.316005 35.590886 10.578176 2.839186 -59.527857 -29.107973 -17.248921 6.232355 4.739198 14.635419 -3.607026 -20.753118 -42.304029 0.890000 -6.013300 -16.822900 -38.544492 -10.434088 3.462834 66.260363 29.897784 -14.666054 -5.984200 -4.269708 12.540628 -2.037461 12.520239 -48.447909 -1.365900 7.396900 -20.896800 -5.494324 -3.257391 -34.162268 12.659490 -1.173970 -2.197378 -4.570317 -1.861668 20.733282 -13.119459 -3.015776 -2.801756 17.202851 -7.708004 23.405224 1.417200 -1.891600 4.877400 17.136305 -4.699104 1.095573 -111.376675 -5.452976 17.716899 20.614793 -19.481696 -2.493138 0.721416 -0.141592 3.239934 21.949276 -12.107263 -4.638800 -7.125000 0.000000 0.000000 -4.165200 17.090700 2.764500 -12.111292 2.815249 1.502225 105.696505 -1.593804 2.435523 -26.092331 34.349495 -5.413511 -0.202385 -4.350313 -3.655893 -12.552690 -55.722049 9.531100 7.125000 0.000000 0.000000 60.865600 -75.225100 -46.830500 
